<svg width="410" height="92" viewBox="0 0 410 92" fill="none" xmlns="http://www.w3.org/2000/svg">
<path d="M91.478 45.3897C91.478 71.1383 71.0074 92 45.7413 92C20.4752 92 0 71.1383 0 45.3897H17.6273C18.6421 65.2684 34.7745 81.066 54.5275 81.066C74.2805 81.066 90.4129 65.2684 91.4277 45.3897H91.478Z" fill="white"/>
<path d="M99.9579 46.6103H82.3535C81.5398 26.5546 65.3205 10.5426 45.4396 10.5426C25.5586 10.5426 9.33477 26.5546 8.52107 46.6103H8.4845C8.4845 20.8756 28.9643 0 54.2212 0C79.4781 0 99.9579 20.8756 99.9579 46.6103Z" fill="white"/>
<path d="M92.3557 48.2129H82.3901C82.3901 47.6725 82.3764 47.1414 82.3535 46.6149C81.5398 26.5592 65.3206 10.5473 45.4396 10.5473C25.5586 10.5473 9.33478 26.5546 8.52107 46.6103C8.49821 47.1414 8.4845 47.6678 8.4845 48.2082C8.4845 47.6771 8.49821 47.1367 8.50735 46.6103C9.33478 23.7454 27.7803 5.4693 50.427 5.4693C73.0736 5.4693 91.5055 23.75 92.3329 46.6149C92.3466 47.146 92.3557 47.6864 92.3557 48.2129Z" fill="#BDBDBD"/>
<path d="M99.9717 58.83V48.5157H0V39.6968H99.9717V29.3777L125 44.1039L99.9717 58.83Z" fill="#DC253C"/>
<path d="M171.25 70.044C170.167 70.044 169.248 69.6593 168.494 68.8899C167.717 68.1446 167.329 67.2189 167.329 66.113V52.2644C167.329 51.0142 167.14 49.8241 166.763 48.6941C166.386 47.564 165.845 46.5903 165.138 45.7729C164.408 44.9314 163.537 44.2822 162.524 43.8254C161.535 43.3446 160.439 43.1041 159.238 43.1041C157.99 43.1041 156.765 43.3325 155.564 43.7893C154.387 44.2221 153.315 44.8352 152.349 45.6286C151.36 46.4461 150.571 47.4078 149.982 48.5137C149.417 49.5957 149.134 50.7377 149.134 51.9398V65.9687C149.134 67.0987 148.757 68.0484 148.004 68.8178C147.25 69.5872 146.332 69.9718 145.248 69.9718C144.118 69.9718 143.176 69.5872 142.422 68.8178C141.668 68.0484 141.291 67.0987 141.291 65.9687V26.4425C141.291 25.3125 141.68 24.3508 142.457 23.5574C143.211 22.788 144.141 22.4034 145.248 22.4034C146.332 22.4034 147.25 22.788 148.004 23.5574C148.757 24.3268 149.134 25.2885 149.134 26.4425V39.7862C150.524 38.3196 152.078 37.1896 153.798 36.3962C155.541 35.5788 157.354 35.17 159.238 35.17C161.476 35.17 163.572 35.6028 165.527 36.4683C167.505 37.3339 169.213 38.5601 170.649 40.1469C172.086 41.7096 173.193 43.5369 173.97 45.6286C174.771 47.6963 175.171 49.8962 175.171 52.2283V66.113C175.171 67.2189 174.783 68.1446 174.006 68.8899C173.652 69.2506 173.228 69.5391 172.734 69.7555C172.263 69.9478 171.768 70.044 171.25 70.044Z" fill="white"/>
<path d="M198.524 70.3685C196.263 70.3685 194.119 69.9358 192.094 69.0702C190.068 68.1807 188.29 66.9425 186.759 65.3556C185.228 63.7688 184.039 61.9536 183.191 59.91C182.343 57.8423 181.919 55.6544 181.919 53.3463V39.2453C181.919 38.1393 182.296 37.2016 183.05 36.4323C183.803 35.6629 184.722 35.2782 185.805 35.2782C186.912 35.2782 187.843 35.6629 188.596 36.4323C189.374 37.2257 189.762 38.1634 189.762 39.2453V53.4184C189.762 54.6687 189.986 55.8347 190.433 56.9167C190.881 57.9986 191.505 58.9483 192.306 59.7657C193.107 60.5832 194.037 61.2203 195.097 61.6771C196.157 62.1339 197.299 62.3623 198.524 62.3623C199.725 62.3623 200.82 62.1339 201.809 61.6771C202.798 61.2203 203.658 60.5711 204.388 59.7296C205.095 58.9362 205.637 57.9986 206.013 56.9167C206.39 55.8107 206.579 54.6206 206.579 53.3463V39.2453C206.579 38.7163 206.685 38.2114 206.897 37.7306C207.109 37.2257 207.403 36.7929 207.78 36.4323C208.604 35.6389 209.534 35.2422 210.571 35.2422C211.631 35.2422 212.549 35.6389 213.326 36.4323C213.656 36.7929 213.915 37.2257 214.104 37.7306C214.316 38.2114 214.422 38.7163 214.422 39.2453V53.3463C214.422 55.6785 214.021 57.8663 213.22 59.91C212.443 61.9536 211.336 63.7688 209.899 65.3556C208.463 66.9425 206.767 68.1807 204.812 69.0702C202.857 69.9358 200.761 70.3685 198.524 70.3685Z" fill="white"/>
<path d="M223.854 69.9718C223.313 69.9718 222.794 69.8757 222.3 69.6833C221.805 69.4669 221.381 69.1784 221.028 68.8178C220.204 68.0484 219.791 67.1228 219.791 66.0409V52.2283C219.791 49.8962 220.215 47.6963 221.063 45.6286C221.911 43.5609 223.101 41.7337 224.632 40.1469C226.139 38.5601 227.894 37.3339 229.895 36.4683C231.897 35.6028 234.041 35.17 236.325 35.17C238.61 35.17 240.777 35.6148 242.826 36.5044C244.875 37.3699 246.665 38.5841 248.196 40.1469C249.75 41.7337 250.951 43.573 251.799 45.6647C252.671 47.7323 253.106 49.9202 253.106 52.2283V66.0409C253.106 67.1468 252.741 68.0725 252.011 68.8178C251.257 69.5872 250.339 69.9718 249.256 69.9718C248.149 69.9718 247.218 69.5872 246.465 68.8178C245.664 68.0725 245.263 67.1468 245.263 66.0409V52.2644C245.24 51.0382 244.993 49.8721 244.521 48.7662C244.05 47.6602 243.403 46.6985 242.578 45.8811C241.754 45.0396 240.8 44.3904 239.717 43.9336C238.633 43.4527 237.503 43.2123 236.325 43.2123C235.101 43.2123 233.958 43.4407 232.898 43.8975C231.862 44.3543 230.944 44.9915 230.143 45.8089C229.366 46.6264 228.753 47.6001 228.306 48.7301C227.882 49.8361 227.67 51.0022 227.67 52.2283V66.0409C227.67 67.1468 227.305 68.0725 226.575 68.8178C226.221 69.1784 225.809 69.4669 225.338 69.6833C224.867 69.8757 224.372 69.9718 223.854 69.9718Z" fill="white"/>
<path d="M276.777 70.4046C274.398 70.4046 272.16 69.9598 270.064 69.0702C267.968 68.1807 266.131 66.9304 264.553 65.3196C262.951 63.7087 261.703 61.8454 260.808 59.7296C259.937 57.5898 259.501 55.3178 259.501 52.9135V28.7506C259.501 27.5966 259.901 26.6349 260.702 25.8655C261.479 25.0721 262.398 24.6754 263.458 24.6754C264.565 24.6754 265.518 25.0601 266.319 25.8294C267.144 26.6709 267.556 27.6447 267.556 28.7506V34.5569H279.956C281.039 34.5569 281.97 34.9537 282.747 35.7471C283.524 36.5405 283.913 37.4902 283.913 38.5961C283.913 39.101 283.807 39.5939 283.595 40.0747C283.383 40.5316 283.1 40.9403 282.747 41.3009C281.993 42.0703 281.063 42.455 279.956 42.455H267.556V52.9857C267.556 54.284 267.779 55.5102 268.227 56.6642C268.698 57.7942 269.357 58.792 270.205 59.6575C271.053 60.5471 272.031 61.2323 273.138 61.7132C274.268 62.17 275.481 62.3984 276.777 62.3984C279.132 62.3984 281.122 61.6891 282.747 60.2706C283.289 59.7898 283.772 59.4411 284.196 59.2248C284.643 59.0084 285.149 58.9002 285.715 58.9002C286.633 58.9002 287.446 59.2608 288.152 59.9821C288.882 60.7755 289.247 61.6891 289.247 62.723C289.247 64.0694 288.776 65.1873 287.834 66.0769C286.351 67.5195 284.667 68.6014 282.782 69.3227C280.922 70.044 278.92 70.4046 276.777 70.4046Z" fill="white"/>
<path d="M308.82 70.3685C306.488 70.3685 304.262 69.9117 302.142 68.9981C300.023 68.0845 298.162 66.8222 296.561 65.2114C294.959 63.6005 293.711 61.7252 292.816 59.5854C291.921 57.4456 291.473 55.1856 291.473 52.8054C291.473 50.4011 291.921 48.129 292.816 45.9892C293.711 43.8254 294.959 41.9381 296.561 40.3272C298.162 38.7163 300.023 37.4541 302.142 36.5405C304.262 35.6268 306.488 35.17 308.82 35.17C311.128 35.17 313.33 35.6148 315.426 36.5044C317.522 37.394 319.371 38.6442 320.973 40.2551C322.551 41.8419 323.799 43.7052 324.717 45.845C325.636 47.9848 326.119 50.2328 326.166 52.589C326.166 53.743 325.801 54.6687 325.071 55.3659C324.364 56.0631 323.446 56.4118 322.315 56.4118H300.235C300.823 58.215 301.919 59.7176 303.52 60.9198C305.075 62.0979 306.841 62.6869 308.82 62.6869C309.856 62.6869 310.715 62.6028 311.399 62.4345C312.082 62.2421 312.741 61.9536 313.377 61.5689C314.225 61.064 314.99 60.8116 315.673 60.8116C316.733 60.8116 317.652 61.2323 318.429 62.0738C318.759 62.4585 319.018 62.9033 319.206 63.4082C319.418 63.9131 319.524 64.43 319.524 64.9589C319.524 65.7523 319.265 66.4856 318.747 67.1588C318.229 67.832 317.499 68.4091 316.556 68.8899C315.614 69.3708 314.472 69.7314 313.13 69.9718C311.811 70.2363 310.374 70.3685 308.82 70.3685ZM318.111 49.7038C317.828 48.7181 317.404 47.8045 316.839 46.963C316.274 46.0974 315.591 45.3521 314.79 44.727C313.141 43.4527 311.198 42.8156 308.961 42.8156C306.794 42.8156 304.874 43.4768 303.202 44.7991C302.425 45.4002 301.754 46.1335 301.189 46.999C300.647 47.8405 300.246 48.7421 299.987 49.7038H318.111Z" fill="white"/>
<path d="M334.892 69.9718C333.809 69.9718 332.867 69.5872 332.066 68.8178C331.265 68.0484 330.865 67.1108 330.865 66.0048V53.6348C330.865 51.1584 331.336 48.7902 332.278 46.5302C333.22 44.2702 334.527 42.2867 336.199 40.5796C337.871 38.8726 339.803 37.5503 341.993 36.6126C344.183 35.6509 346.492 35.17 348.917 35.17H348.988C350.26 35.17 351.249 35.5427 351.956 36.288C352.686 37.0093 353.051 37.959 353.051 39.1371C353.051 39.6901 352.945 40.219 352.733 40.7239C352.521 41.2048 352.238 41.6255 351.885 41.9861C351.084 42.7555 350.119 43.1402 348.988 43.1402H348.811C347.493 43.1642 346.221 43.4407 344.996 43.9697C343.795 44.4986 342.723 45.2319 341.781 46.1696C340.839 47.1313 340.097 48.2252 339.555 49.4514C339.014 50.6776 338.731 51.9879 338.708 53.3824V66.0048C338.708 67.0867 338.342 68.0244 337.612 68.8178C337.259 69.1784 336.847 69.4669 336.376 69.6833C335.905 69.8757 335.41 69.9718 334.892 69.9718Z" fill="white"/>
<path d="M362.307 70.2603C361.176 70.2603 360.234 69.8757 359.481 69.1063C358.68 68.3369 358.28 67.3752 358.28 66.2212V40.6878C358.28 38.0912 358.645 35.687 359.375 33.475C360.128 31.2391 361.224 29.2916 362.66 27.6327C364.121 25.9497 365.899 24.6514 367.995 23.7377C370.091 22.8001 372.446 22.3312 375.061 22.3312C377.698 22.3312 380.089 22.8001 382.232 23.7377C384.399 24.6514 386.236 25.9497 387.744 27.6327C389.227 29.3156 390.358 31.3232 391.135 33.6553C391.936 35.9875 392.336 38.548 392.336 41.337V66.2212C392.336 67.3512 391.948 68.3129 391.17 69.1063C390.37 69.8757 389.416 70.2603 388.309 70.2603C387.178 70.2603 386.213 69.8757 385.412 69.1063C384.611 68.3369 384.211 67.3752 384.211 66.2212V57.097H366.37V66.2212C366.37 67.3752 365.969 68.3369 365.169 69.1063C364.368 69.8757 363.414 70.2603 362.307 70.2603ZM384.211 48.8744V41.3731C384.211 39.7381 383.999 38.2595 383.575 36.9372C383.174 35.5908 382.586 34.4488 381.808 33.5111C381.008 32.5494 380.054 31.8161 378.947 31.3112C377.84 30.8063 376.603 30.5538 375.237 30.5538C372.435 30.5538 370.256 31.4675 368.701 33.2947C367.147 35.122 366.37 37.7787 366.37 41.2649V48.8744H384.211Z" fill="#DC253C"/>
<path d="M405.373 70.2964C404.289 70.2964 403.371 69.9117 402.617 69.1424C401.84 68.397 401.451 67.4714 401.451 66.3654V26.2622C401.451 25.1803 401.84 24.2426 402.617 23.4492C403.394 22.7039 404.313 22.3312 405.373 22.3312C406.503 22.3312 407.433 22.7039 408.164 23.4492C408.917 24.1705 409.294 25.1082 409.294 26.2622V66.3654C409.294 67.4954 408.917 68.4211 408.164 69.1424C407.41 69.9117 406.48 70.2964 405.373 70.2964Z" fill="#DC253C"/>
</svg>
